# xmcd
#
# Track frame offsets:
#	150
#	1476
#	30260
#	58738
#	109355
#	112135
#	143583
#	176632
#	193296
#
# Disc length: 2584 seconds
#
# Revision: 1
# Processed by: cddbd v1.5.2PL0 Copyright (c) Steve Scherf et al.
# Submitted via: audiograbber 1.83.01
#
DISCID=7d0a1609
DTITLE=Grateful Dead - 82-08-06 St Paul Civic Centre Arena, St Paul MN
DYEAR=1900
DGENRE=
TTITLE0=Tuning 2
TTITLE1=Scarlet Begonias
TTITLE2=Scarlet/Fire transition Jam
TTITLE3=Fire On The Mountain
TTITLE4=Stage Announcement
TTITLE5=Lost Sailor
TTITLE6=Saint Of Circumstance
TTITLE7=Spacey Jam
TTITLE8=Drums
EXTD=
EXTT0=
EXTT1=
EXTT2=
EXTT3=
EXTT4=
EXTT5=
EXTT6=
EXTT7=
EXTT8=
PLAYORDER=
